<svg xmlns="http://www.w3.org/2000/svg" width="668.843" height="639.843">
    <defs>
        <filter id="BG" x="0" y="0" width="372.843" height="372.843" filterUnits="userSpaceOnUse">
            <feOffset dy="15"/>
            <feGaussianBlur stdDeviation="15" result="blur"/>
            <feFlood flood-opacity=".49"/>
            <feComposite operator="in" in2="blur"/>
            <feComposite in="SourceGraphic"/>
        </filter>
        <filter id="BG-2" x="296" y="59" width="372.843" height="372.843" filterUnits="userSpaceOnUse">
            <feOffset dy="15"/>
            <feGaussianBlur stdDeviation="15" result="blur-2"/>
            <feFlood flood-opacity=".49"/>
            <feComposite operator="in" in2="blur-2"/>
            <feComposite in="SourceGraphic"/>
        </filter>
        <filter id="BG-3" x="81" y="267" width="372.843" height="372.843" filterUnits="userSpaceOnUse">
            <feOffset dy="15"/>
            <feGaussianBlur stdDeviation="15" result="blur-3"/>
            <feFlood flood-opacity=".49"/>
            <feComposite operator="in" in2="blur-3"/>
            <feComposite in="SourceGraphic"/>
        </filter>
        <style>
            .cls-1,.cls-3{fill:#299dee}.cls-1{font-size:15px;font-family:Montserrat-Medium,Montserrat;font-weight:500}.cls-2{fill:rgba(44,168,255,.2)}.cls-4{fill:#fff}
        </style>
    </defs>
    <g id="Group_417" data-name="Group 417" transform="translate(-219 -2473)">
        <text id="Amazing_design" data-name="Amazing design" class="cls-1" transform="rotate(-45 3263.406 888.253)"><tspan x="-75.975" y="0">Strategy &amp; Planning</tspan></text>
        <g id="Group_411" data-name="Group 411">
            <g transform="translate(219 2473)" style="filter:url(#BG)">
                <rect id="BG-4" data-name="BG" class="cls-2" width="200" height="200" rx="15" transform="rotate(45 56.997 240.029)"/>
            </g>
            <g id="Icon" transform="translate(350 2589)">
                <rect id="Icon_bg" data-name="Icon bg" class="cls-3" width="110.011" height="110.011" rx="15" transform="translate(.416 .416)"/>
                <path id="icon-2" data-name="icon" class="cls-4" d="m580.684 1455.986-1.433-20.492a9.4 9.4 0 0 1-1.394.85 1.093 1.093 0 0 1-1.552-.772c-.6-3.089-1.286-6.541-1.5-7.448a1.143 1.143 0 0 1 .829-1.641 1.116 1.116 0 0 1 1.229.872c.018.068.043.166.073.292.049.209.115.514.2.906.138.65.321 1.556.548 2.694.166.833.33 1.671.464 2.356 2.884-2.177 5.308-6.461 5.336-6.51a1.092 1.092 0 0 1 2.034.69l-.256 1.744c5.7-6.5 6.633-15.69 6.331-22.612a59.879 59.879 0 0 0-.232-3.228c-.542 5.784-1.857 12.97-4.919 19.156a1.092 1.092 0 0 1-.98.607 1.09 1.09 0 0 1-.978-1.573c5.71-11.534 5.051-27.279 4.977-28.724-.163-.612-.3-1.087-.392-1.4-13.6-6.506-25.222-6.871-32.61-6.019a42.8 42.8 0 0 0-12.5 3.252 13.166 13.166 0 0 0 2.843 8.4c2.413 2.9 6.238 4.624 11.375 5.12a12.723 12.723 0 0 1 7.162-3.79 1.09 1.09 0 1 1 .352 2.151 10.485 10.485 0 0 0-6.148 3.354 1.1 1.1 0 0 1-.22.251 10.518 10.518 0 0 0 5.082 16.837 1.089 1.089 0 0 1 .782 1.045v4.177h4.413v-4.177a1.091 1.091 0 0 1 .782-1.045 10.5 10.5 0 0 0-1.284-20.443 1.09 1.09 0 1 1 .351-2.151 12.695 12.695 0 0 1 10.653 12.519 12.551 12.551 0 0 1-2.578 7.658 12.831 12.831 0 0 1-5.74 4.247v9.53a4.395 4.395 0 0 1-8.789 0v-9.53a12.828 12.828 0 0 1-5.739-4.247 12.657 12.657 0 0 1-.644-14.378c-5.081-.721-8.951-2.655-11.522-5.764a13.914 13.914 0 0 1-1.418-2.077 24.359 24.359 0 0 0-4.213 8.729 4.1 4.1 0 0 1 2.533-.93h10.1a1.09 1.09 0 1 1 0 2.18h-3.362q.227.308.436.655h3.605a1.09 1.09 0 1 1 0 2.181h-2.611a17.9 17.9 0 0 1 .865 5.663c0 5.988-2.685 10.678-6.111 10.678h-2.922c-2.2 0-4.09-1.931-5.164-4.9a531.343 531.343 0 0 0-1.8 6.131 1.836 1.836 0 0 0 1.768 2.343h2.272a2.417 2.417 0 0 1 2.418 2.181c1.423-.462 4-1.292 7.438-2.356a1.092 1.092 0 0 1 1.417 1.039 10.2 10.2 0 0 1-8.594 9.677l.131 4.379a1.877 1.877 0 0 0 2.081 1.806l9.794-1.065a1.116 1.116 0 0 1 .246 0l1.781-.184a2.965 2.965 0 0 0 2.671-2.954v-3.351a1.092 1.092 0 0 1 2.184 0v3.351a5.141 5.141 0 0 1-4.632 5.123l-1.039.106v7.652h21.914a1.09 1.09 0 1 1 0 2.18h-23.009a1.091 1.091 0 0 1-1.093-1.09v-8.518l-3.407.351-5.176.563a4.06 4.06 0 0 1-4.5-3.909l-.378-12.564a.249.249 0 0 0-.249-.241h-2.271a4.016 4.016 0 0 1-3.867-5.126c.88-3.049 2.114-7.255 3-9.994a19.6 19.6 0 0 1-.046-1.317 17.37 17.37 0 0 1 .829-5.443 22.832 22.832 0 0 1 2.37-9.688c-1.43-3.418-1.628-6.379-.58-8.8a7.633 7.633 0 0 1 3.938-3.93 42.222 42.222 0 0 1 13.652-3.711 56.655 56.655 0 0 1 15.2.31 67.177 67.177 0 0 1 19.157 6.12 1.09 1.09 0 0 1 .56.642 66.724 66.724 0 0 1 2.765 16.18 43.508 43.508 0 0 1-1.463 14.036 25.189 25.189 0 0 1-7.9 12.545 1.092 1.092 0 0 1-1.784-.992l.042-.286a24.354 24.354 0 0 1-1.36 1.549c0 .03.009.059.011.089l1.543 22.072a1.091 1.091 0 0 1-1.013 1.164h-.076a1.092 1.092 0 0 1-1.089-1.013zm-15.5-23.313a2.21 2.21 0 0 0 4.421 0v-.912h-4.421zm0-3.091h4.416v-.868h-4.421zm-26.307-19.472a1.076 1.076 0 0 1-.11.322 15.356 15.356 0 0 0-.7 4.722c0 5.008 2.07 8.5 3.927 8.5s3.926-3.49 3.926-8.5-2.069-8.5-3.926-8.5c-1.135.002-2.347 1.304-3.12 3.456zm9.229 5.045a14.945 14.945 0 0 1-2.1 8.119c1.495-1.03 2.84-4.081 2.84-8.119a14.566 14.566 0 0 0-1.212-6.134 1.06 1.06 0 0 1-.135-.266 4.453 4.453 0 0 0-1.545-1.8 14.856 14.856 0 0 1 2.146 8.2zm-7.611-23.034a7.89 7.89 0 0 0-.008 5.355 28.875 28.875 0 0 1 2.069-2.912 1 1 0 0 1 .112-.117 15.953 15.953 0 0 1-.865-4.175 5.329 5.329 0 0 0-1.312 1.849zm26.9 30.177h-.021c-.035 0-.069 0-.1-.006l-.044-.006c-.028 0-.057-.01-.085-.017l-.026-.005h-.012a1.671 1.671 0 0 1-.1-.033l-.019-.006q-.059-.026-.116-.057l-.022-.013-.011-.007c-.02-.012-.04-.023-.058-.037l-.024-.017-.027-.022-.031-.024-.043-.04-.019-.018-.01-.011a.876.876 0 0 1-.042-.046l-.029-.033-.035-.048c-.009-.013-.019-.026-.027-.04l-.026-.042-.008-.013-3.767-6.6a1.092 1.092 0 0 1 1.9-1.078l1.725 3.025v-4.121a1.092 1.092 0 0 1 2.184 0v4.121l1.725-3.025a1.092 1.092 0 0 1 1.9 1.078l-3.767 6.605-.008.012a.591.591 0 0 1-.026.042l-.027.04-.036.048-.029.033-.041.046-.01.011-.02.018-.044.04-.031.024-.028.022-.023.017c-.02.014-.039.025-.058.037l-.011.007-.022.013a1.071 1.071 0 0 1-.117.057l-.019.006c-.032.013-.066.023-.1.033h-.012a.208.208 0 0 1-.026.005.799.799 0 0 1-.085.017l-.044.006c-.033 0-.068.005-.1.006h-.02zm-26.711-4.178v-5.47a1.09 1.09 0 0 1 2.18 0v5.47a1.09 1.09 0 1 1-2.18 0zm-14.5-10.471a1.091 1.091 0 0 1 .715-1.367l5.965-1.869a1.09 1.09 0 1 1 .654 2.079l-5.964 1.87a1.093 1.093 0 0 1-1.37-.713zm7.013-6.044-6.068-1.5a1.09 1.09 0 1 1 .527-2.116l6.068 1.5a1.09 1.09 0 0 1-.263 2.148 1.107 1.107 0 0 1-.268-.037zm15.869-5.251a1.088 1.088 0 0 1 .518-1.451 30.883 30.883 0 0 1 16.985-2.146 1.09 1.09 0 1 1-.379 2.146 29.053 29.053 0 0 0-15.67 1.968 1.077 1.077 0 0 1-.467.105 1.091 1.091 0 0 1-.991-.623zm-14.53-.357-4.282-4.546a1.091 1.091 0 0 1 1.592-1.492l4.282 4.545a1.091 1.091 0 0 1-1.592 1.493zm12.362-4.12a1.091 1.091 0 0 1 .841-1.061 6.72 6.72 0 0 0 .248-.109c7.7-3.425 18.809-3.588 32.12-.472a1.09 1.09 0 1 1-.5 2.122c-12.842-3.006-23.468-2.888-30.731.342a2.092 2.092 0 0 1-.887.268 1.091 1.091 0 0 1-1.094-1.092z" transform="translate(-504.557 -1364.684)"/>
            </g>
        </g>
        <text id="Well_organized" data-name="Well organized" class="cls-1" transform="rotate(-45 3482.626 560.45)"><tspan x="-94.462" y="0">Ui Design &amp; Final Testing</tspan></text>
        <g id="Group_412" data-name="Group 412">
            <g transform="translate(219 2473)" style="filter:url(#BG-2)">
                <rect id="BG-5" data-name="BG" class="cls-2" width="200" height="200" rx="15" transform="rotate(45 133.777 626.832)"/>
            </g>
            <g id="Icon-3" data-name="Icon" transform="translate(646 2648)">
                <rect id="Icon_bg-2" data-name="Icon bg" class="cls-3" width="110.011" height="110.011" rx="15" transform="translate(.416 .416)"/>
                <path id="icon-4" data-name="icon" class="cls-4" d="M942.282 1457a1.115 1.115 0 0 1 0-2.229h10.385v-8.53h-24.048a2.639 2.639 0 0 1-2.619-2.652v-48.936a2.639 2.639 0 0 1 2.619-2.652h63.761a2.639 2.639 0 0 1 2.619 2.652v48.936a2.639 2.639 0 0 1-2.619 2.652h-24.047v8.53h10.385a1.115 1.115 0 0 1 0 2.229zm12.587-2.229h11.261v-8.53h-11.261zm-26.669-60.119v48.936a.425.425 0 0 0 .417.422h63.761a.425.425 0 0 0 .417-.422v-48.936a.425.425 0 0 0-.417-.422h-63.759a.425.425 0 0 0-.419.422zm3.453 42.517a1.115 1.115 0 0 1 0-2.23h57.689a1.115 1.115 0 0 1 0 2.23zm12.646-10.377a32.543 32.543 0 0 1-11.522-11.642 1.128 1.128 0 0 1 0-1.13 32.534 32.534 0 0 1 11.522-11.641 31.819 31.819 0 0 1 32.4 0 32.535 32.535 0 0 1 11.522 11.641 1.128 1.128 0 0 1 0 1.13 32.544 32.544 0 0 1-11.522 11.642 31.825 31.825 0 0 1-32.4 0zm15.77-26.609a14.415 14.415 0 0 0 0 28.8c.142 0 .285.007.428.007s.286-.005.429-.007a14.415 14.415 0 0 0 0-28.8c-.143 0-.286-.007-.429-.007s-.283.004-.426.006zm16.861 14.4a16.692 16.692 0 0 1-5.279 12.208 30.177 30.177 0 0 0 14.332-12.208 30.185 30.185 0 0 0-14.332-12.208 16.7 16.7 0 0 1 5.281 12.209zm-41.917 0a30.181 30.181 0 0 0 14.333 12.208 16.755 16.755 0 0 1 0-24.416 30.185 30.185 0 0 0-14.331 12.209zm18.157 0a7.384 7.384 0 0 1 7.329-7.42 7.191 7.191 0 0 1 3.015.658 1.121 1.121 0 0 1 .55 1.475 1.1 1.1 0 0 1-1.457.556 5.039 5.039 0 0 0-2.108-.459 5.176 5.176 0 1 0 4.673 3.057 1.12 1.12 0 0 1 .55-1.475 1.1 1.1 0 0 1 1.456.556 7.352 7.352 0 1 1-14.008 3.053z" transform="translate(-905.078 -1369.078)"/>
            </g>
        </g>
        <text id="Well_organized-2" data-name="Well organized" class="cls-1" transform="rotate(-45 3626.204 923.977)"><tspan x="-94.507" y="0">UX Design &amp; Prototyping</tspan></text>
        <g id="Group_413" data-name="Group 413">
            <g transform="translate(219 2473)" style="filter:url(#BG-3)">
                <path id="BG-6" data-name="BG" class="cls-2" d="M15 0h170a15 15 0 0 1 15 15v170a15 15 0 0 1-15 15H15a15 15 0 0 1-15-15V15A15 15 0 0 1 15 0z" transform="rotate(45 -224.8 471.304)"/>
            </g>
            <g id="Icon-5" data-name="Icon" transform="translate(431 2856)">
                <rect id="Icon_bg-3" data-name="Icon bg" class="cls-3" width="110.011" height="110.011" rx="15" transform="translate(.416 .416)"/>
                <path id="Icon-6" data-name="Icon" class="cls-4" d="M1326.38 1457a1.384 1.384 0 0 1-1.381-1.386v-41.579a1.384 1.384 0 0 1 1.381-1.386h8.284a1.384 1.384 0 0 1 1.381 1.386v.639l9.681-4.319a5.463 5.463 0 0 1 2.244-.477h7.405a5.422 5.422 0 0 1 2.365.554l-3.279-17.1-1.823-9.525a1.418 1.418 0 0 1-.025-.262 1.383 1.383 0 0 1 1.381-1.386h33.136a1.329 1.329 0 0 1 .26.025 1.385 1.385 0 0 1 1.094 1.623l-1.823 9.525-3.275 17.1a5.411 5.411 0 0 1 2.363-.554h1.381a5.533 5.533 0 0 1 5.523 5.543v26a5.521 5.521 0 0 1-1.618 3.921 29.984 29.984 0 0 1-21.38 8.89h-33.61v1.385a1.384 1.384 0 0 1-1.381 1.386zm1.38-2.771h5.523v-38.809h-5.523zm19.09-41.342-10.805 4.82v33.75h33.61a27.245 27.245 0 0 0 19.427-8.078 2.75 2.75 0 0 0 .809-1.959v-3.56a24.9 24.9 0 0 1-11.679 4.988l-11.6 1.664-.391-2.743 11.6-1.663a22.157 22.157 0 0 0 12.07-5.886v-3.289a24.919 24.919 0 0 1-11.679 4.989l-11.6 1.663-.391-2.743 11.6-1.663a22.145 22.145 0 0 0 12.07-5.886V1424a24.918 24.918 0 0 1-11.679 4.988l-11.6 1.663-.391-2.743 11.6-1.663a22.144 22.144 0 0 0 12.07-5.886v-4.938a2.766 2.766 0 0 0-2.761-2.772h-1.381a2.767 2.767 0 0 0-2.761 2.772 5.533 5.533 0 0 1-5.523 5.544h-13.807a5.533 5.533 0 0 1-5.522-5.544 2.767 2.767 0 0 0-2.761-2.772h-7.411a2.728 2.728 0 0 0-1.113.238zm10.567-18.81 4.5 23.476a2.731 2.731 0 0 0 1.743.641h13.807a2.732 2.732 0 0 0 1.744-.641l4.5-23.476a11.077 11.077 0 0 1-7.526-9.148h-11.239a11.077 11.077 0 0 1-7.528 9.148zm26.815-2.744 1.229-6.4h-6.5a8.325 8.325 0 0 0 5.271 6.4zm-27.338 0a8.322 8.322 0 0 0 5.269-6.4h-6.5zm6.765 18.545a6.9 6.9 0 1 1 6.9 6.929 6.918 6.918 0 0 1-6.9-6.93zm2.762 0a4.142 4.142 0 1 0 4.142-4.159 4.149 4.149 0 0 0-4.142 4.158zm-20.674-30.172a1.417 1.417 0 0 1-.037-.32 1.383 1.383 0 0 1 1.38-1.386h12.426v2.772h-10.679l6.5 27.4-2.686.642zm40.035 28.484 5.522-24.948 2.7.6-5.522 24.947z" transform="translate(-1304.079 -1362.078)"/>
            </g>
        </g>
    </g>
</svg>
