<svg xmlns="http://www.w3.org/2000/svg" width="372.843" height="372.843">
    <defs>
        <filter id="a" x="0" y="0" width="372.843" height="372.843" filterUnits="userSpaceOnUse">
            <feOffset dy="15"/>
            <feGaussianBlur stdDeviation="15" result="blur"/>
            <feFlood flood-opacity=".49"/>
            <feComposite operator="in" in2="blur"/>
            <feComposite in="SourceGraphic"/>
        </filter>
    </defs>
    <g data-name="Group 411">
        <g style="filter:url(#a)">
            <rect data-name="BG" width="200" height="200" rx="15" transform="rotate(45 56.997 240.029)" style="fill:rgba(44,168,255,.2)"/>
        </g>
        <g transform="translate(131 116)">
            <rect data-name="Icon bg" width="110.011" height="110.011" rx="15" transform="translate(.416 .416)" style="fill:#299dee"/>
            <path data-name="icon" d="m580.684 1455.986-1.433-20.492a9.4 9.4 0 0 1-1.394.85 1.093 1.093 0 0 1-1.552-.772c-.6-3.089-1.286-6.541-1.5-7.448a1.143 1.143 0 0 1 .829-1.641 1.116 1.116 0 0 1 1.229.872c.018.068.043.166.073.292.049.209.115.514.2.906.138.65.321 1.556.548 2.694.166.833.33 1.671.464 2.356 2.884-2.177 5.308-6.461 5.336-6.51a1.092 1.092 0 0 1 2.034.69l-.256 1.744c5.7-6.5 6.633-15.69 6.331-22.612a59.879 59.879 0 0 0-.232-3.228c-.542 5.784-1.857 12.97-4.919 19.156a1.092 1.092 0 0 1-.98.607 1.09 1.09 0 0 1-.978-1.573c5.71-11.534 5.051-27.279 4.977-28.724-.163-.612-.3-1.087-.392-1.4-13.6-6.506-25.222-6.871-32.61-6.019a42.8 42.8 0 0 0-12.5 3.252 13.166 13.166 0 0 0 2.843 8.4c2.413 2.9 6.238 4.624 11.375 5.12a12.723 12.723 0 0 1 7.162-3.79 1.09 1.09 0 1 1 .352 2.151 10.485 10.485 0 0 0-6.148 3.354 1.1 1.1 0 0 1-.22.251 10.518 10.518 0 0 0 5.082 16.837 1.089 1.089 0 0 1 .782 1.045v4.177h4.413v-4.177a1.091 1.091 0 0 1 .782-1.045 10.5 10.5 0 0 0-1.284-20.443 1.09 1.09 0 1 1 .351-2.151 12.695 12.695 0 0 1 10.653 12.519 12.551 12.551 0 0 1-2.578 7.658 12.831 12.831 0 0 1-5.74 4.247v9.53a4.395 4.395 0 0 1-8.789 0v-9.53a12.828 12.828 0 0 1-5.739-4.247 12.657 12.657 0 0 1-.644-14.378c-5.081-.721-8.951-2.655-11.522-5.764a13.914 13.914 0 0 1-1.418-2.077 24.359 24.359 0 0 0-4.213 8.729 4.1 4.1 0 0 1 2.533-.93h10.1a1.09 1.09 0 1 1 0 2.18h-3.362q.227.308.436.655h3.605a1.09 1.09 0 1 1 0 2.181h-2.611a17.9 17.9 0 0 1 .865 5.663c0 5.988-2.685 10.678-6.111 10.678h-2.922c-2.2 0-4.09-1.931-5.164-4.9a531.343 531.343 0 0 0-1.8 6.131 1.836 1.836 0 0 0 1.768 2.343h2.272a2.417 2.417 0 0 1 2.418 2.181c1.423-.462 4-1.292 7.438-2.356a1.092 1.092 0 0 1 1.417 1.039 10.2 10.2 0 0 1-8.594 9.677l.131 4.379a1.877 1.877 0 0 0 2.081 1.806l9.794-1.065a1.116 1.116 0 0 1 .246 0l1.781-.184a2.965 2.965 0 0 0 2.671-2.954v-3.351a1.092 1.092 0 0 1 2.184 0v3.351a5.141 5.141 0 0 1-4.632 5.123l-1.039.106v7.652h21.914a1.09 1.09 0 1 1 0 2.18h-23.009a1.091 1.091 0 0 1-1.093-1.09v-8.518l-3.407.351-5.176.563a4.06 4.06 0 0 1-4.5-3.909l-.378-12.564a.249.249 0 0 0-.249-.241h-2.271a4.016 4.016 0 0 1-3.867-5.126c.88-3.049 2.114-7.255 3-9.994a19.6 19.6 0 0 1-.046-1.317 17.37 17.37 0 0 1 .829-5.443 22.832 22.832 0 0 1 2.37-9.688c-1.43-3.418-1.628-6.379-.58-8.8a7.633 7.633 0 0 1 3.938-3.93 42.222 42.222 0 0 1 13.652-3.711 56.655 56.655 0 0 1 15.2.31 67.177 67.177 0 0 1 19.157 6.12 1.09 1.09 0 0 1 .56.642 66.724 66.724 0 0 1 2.765 16.18 43.508 43.508 0 0 1-1.463 14.036 25.189 25.189 0 0 1-7.9 12.545 1.092 1.092 0 0 1-1.784-.992l.042-.286a24.354 24.354 0 0 1-1.36 1.549c0 .03.009.059.011.089l1.543 22.072a1.091 1.091 0 0 1-1.013 1.164h-.076a1.092 1.092 0 0 1-1.089-1.013zm-15.5-23.313a2.21 2.21 0 0 0 4.421 0v-.912h-4.421zm0-3.091h4.416v-.868h-4.421zm-26.307-19.472a1.076 1.076 0 0 1-.11.322 15.356 15.356 0 0 0-.7 4.722c0 5.008 2.07 8.5 3.927 8.5s3.926-3.49 3.926-8.5-2.069-8.5-3.926-8.5c-1.135.002-2.347 1.304-3.12 3.456zm9.229 5.045a14.945 14.945 0 0 1-2.1 8.119c1.495-1.03 2.84-4.081 2.84-8.119a14.566 14.566 0 0 0-1.212-6.134 1.06 1.06 0 0 1-.135-.266 4.453 4.453 0 0 0-1.545-1.8 14.856 14.856 0 0 1 2.146 8.2zm-7.611-23.034a7.89 7.89 0 0 0-.008 5.355 28.875 28.875 0 0 1 2.069-2.912 1 1 0 0 1 .112-.117 15.953 15.953 0 0 1-.865-4.175 5.329 5.329 0 0 0-1.312 1.849zm26.9 30.177h-.021c-.035 0-.069 0-.1-.006l-.044-.006c-.028 0-.057-.01-.085-.017l-.026-.005h-.012a1.671 1.671 0 0 1-.1-.033l-.019-.006q-.059-.026-.116-.057l-.022-.013-.011-.007c-.02-.012-.04-.023-.058-.037l-.024-.017-.027-.022-.031-.024-.043-.04-.019-.018-.01-.011a.876.876 0 0 1-.042-.046l-.029-.033-.035-.048c-.009-.013-.019-.026-.027-.04l-.026-.042-.008-.013-3.767-6.6a1.092 1.092 0 0 1 1.9-1.078l1.725 3.025v-4.121a1.092 1.092 0 0 1 2.184 0v4.121l1.725-3.025a1.092 1.092 0 0 1 1.9 1.078l-3.767 6.605-.008.012a.591.591 0 0 1-.026.042l-.027.04-.036.048-.029.033-.041.046-.01.011-.02.018-.044.04-.031.024-.028.022-.023.017c-.02.014-.039.025-.058.037l-.011.007-.022.013a1.071 1.071 0 0 1-.117.057l-.019.006c-.032.013-.066.023-.1.033h-.012a.208.208 0 0 1-.026.005.799.799 0 0 1-.085.017l-.044.006c-.033 0-.068.005-.1.006h-.02zm-26.711-4.178v-5.47a1.09 1.09 0 0 1 2.18 0v5.47a1.09 1.09 0 1 1-2.18 0zm-14.5-10.471a1.091 1.091 0 0 1 .715-1.367l5.965-1.869a1.09 1.09 0 1 1 .654 2.079l-5.964 1.87a1.093 1.093 0 0 1-1.37-.713zm7.013-6.044-6.068-1.5a1.09 1.09 0 1 1 .527-2.116l6.068 1.5a1.09 1.09 0 0 1-.263 2.148 1.107 1.107 0 0 1-.268-.037zm15.869-5.251a1.088 1.088 0 0 1 .518-1.451 30.883 30.883 0 0 1 16.985-2.146 1.09 1.09 0 1 1-.379 2.146 29.053 29.053 0 0 0-15.67 1.968 1.077 1.077 0 0 1-.467.105 1.091 1.091 0 0 1-.991-.623zm-14.53-.357-4.282-4.546a1.091 1.091 0 0 1 1.592-1.492l4.282 4.545a1.091 1.091 0 0 1-1.592 1.493zm12.362-4.12a1.091 1.091 0 0 1 .841-1.061 6.72 6.72 0 0 0 .248-.109c7.7-3.425 18.809-3.588 32.12-.472a1.09 1.09 0 1 1-.5 2.122c-12.842-3.006-23.468-2.888-30.731.342a2.092 2.092 0 0 1-.887.268 1.091 1.091 0 0 1-1.094-1.092z" transform="translate(-504.557 -1364.684)" style="fill:#fff"/>
        </g>
    </g>
</svg>
