<svg xmlns="http://www.w3.org/2000/svg" width="372.843" height="372.843">
    <defs>
        <filter id="a" x="0" y="0" width="372.843" height="372.843" filterUnits="userSpaceOnUse">
            <feOffset dy="15"/>
            <feGaussianBlur stdDeviation="15" result="blur"/>
            <feFlood flood-opacity=".49"/>
            <feComposite operator="in" in2="blur"/>
            <feComposite in="SourceGraphic"/>
        </filter>
    </defs>
    <g data-name="Group 413">
        <g style="filter:url(#a)">
            <path data-name="BG" d="M15 0h170a15 15 0 0 1 15 15v170a15 15 0 0 1-15 15H15a15 15 0 0 1-15-15V15A15 15 0 0 1 15 0z" transform="rotate(45 56.997 240.029)" style="fill:rgba(44,168,255,.2)"/>
        </g>
        <g transform="translate(131 116)">
            <rect data-name="Icon bg" width="110.011" height="110.011" rx="15" transform="translate(.416 .416)" style="fill:#299dee"/>
            <path data-name="Icon" d="M1326.38 1457a1.384 1.384 0 0 1-1.381-1.386v-41.579a1.384 1.384 0 0 1 1.381-1.386h8.284a1.384 1.384 0 0 1 1.381 1.386v.639l9.681-4.319a5.463 5.463 0 0 1 2.244-.477h7.405a5.422 5.422 0 0 1 2.365.554l-3.279-17.1-1.823-9.525a1.418 1.418 0 0 1-.025-.262 1.383 1.383 0 0 1 1.381-1.386h33.136a1.329 1.329 0 0 1 .26.025 1.385 1.385 0 0 1 1.094 1.623l-1.823 9.525-3.275 17.1a5.411 5.411 0 0 1 2.363-.554h1.381a5.533 5.533 0 0 1 5.523 5.543v26a5.521 5.521 0 0 1-1.618 3.921 29.984 29.984 0 0 1-21.38 8.89h-33.61v1.385a1.384 1.384 0 0 1-1.381 1.386zm1.38-2.771h5.523v-38.809h-5.523zm19.09-41.342-10.805 4.82v33.75h33.61a27.245 27.245 0 0 0 19.427-8.078 2.75 2.75 0 0 0 .809-1.959v-3.56a24.9 24.9 0 0 1-11.679 4.988l-11.6 1.664-.391-2.743 11.6-1.663a22.157 22.157 0 0 0 12.07-5.886v-3.289a24.919 24.919 0 0 1-11.679 4.989l-11.6 1.663-.391-2.743 11.6-1.663a22.145 22.145 0 0 0 12.07-5.886V1424a24.918 24.918 0 0 1-11.679 4.988l-11.6 1.663-.391-2.743 11.6-1.663a22.144 22.144 0 0 0 12.07-5.886v-4.938a2.766 2.766 0 0 0-2.761-2.772h-1.381a2.767 2.767 0 0 0-2.761 2.772 5.533 5.533 0 0 1-5.523 5.544h-13.807a5.533 5.533 0 0 1-5.522-5.544 2.767 2.767 0 0 0-2.761-2.772h-7.411a2.728 2.728 0 0 0-1.113.238zm10.567-18.81 4.5 23.476a2.731 2.731 0 0 0 1.743.641h13.807a2.732 2.732 0 0 0 1.744-.641l4.5-23.476a11.077 11.077 0 0 1-7.526-9.148h-11.239a11.077 11.077 0 0 1-7.528 9.148zm26.815-2.744 1.229-6.4h-6.5a8.325 8.325 0 0 0 5.271 6.4zm-27.338 0a8.322 8.322 0 0 0 5.269-6.4h-6.5zm6.765 18.545a6.9 6.9 0 1 1 6.9 6.929 6.918 6.918 0 0 1-6.9-6.93zm2.762 0a4.142 4.142 0 1 0 4.142-4.159 4.149 4.149 0 0 0-4.142 4.158zm-20.674-30.172a1.417 1.417 0 0 1-.037-.32 1.383 1.383 0 0 1 1.38-1.386h12.426v2.772h-10.679l6.5 27.4-2.686.642zm40.035 28.484 5.522-24.948 2.7.6-5.522 24.947z" transform="translate(-1304.079 -1362.078)" style="fill:#fff"/>
        </g>
    </g>
</svg>
